<?xml version="1.0" encoding="iso-8859-1"?>
<!-- Generator: Adobe Illustrator 19.0.0, SVG Export Plug-In . SVG Version: 6.00 Build 0)  -->
<svg version="1.1" id="Layer_1" xmlns="http://www.w3.org/2000/svg" xmlns:xlink="http://www.w3.org/1999/xlink" x="0px" y="0px"
	 viewBox="0 0 512 512" style="enable-background:new 0 0 512 512;" xml:space="preserve">
<g transform="translate(1 1)">
	<g>
		<g>
			<path style ="fill:none" stroke="#00c4ed" stroke-width="17" d="M485.4,425.667h-98.85c32.2-33.201,48.598-73.6,48.598-119.467v-23.694C473.048,275.092,511,224.204,511,150.704
				c0-57.742-29.963-65.546-75.852-66.3v-66.44c0-5.689-3.793-9.482-9.481-9.482H84.333c-5.689,0-9.481,3.793-9.481,9.482V306.2
				c0,45.866,16.398,86.266,48.598,119.467H23.652C10.378,425.667-1,436.096-1,450.318c0,11.378,7.585,19.911,21.807,22.756
				l119.467,9.481c4.741,0,5.689,1.896,6.637,3.793c4.741,9.482,14.222,15.17,24.652,15.17h157.393
				c10.43,0,19.911-5.689,22.755-15.17c1.896-2.844,3.793-3.793,6.637-3.793l129.896-9.481h0.948
				c13.274-2.844,20.859-11.378,20.859-22.756C510.052,437.044,499.622,425.667,485.4,425.667z M492.037,150.704
				c0,54.044-26.548,104.296-56.889,112.83V103.296C480.659,104.244,492.037,110.881,492.037,150.704z M330.852,97.607
				l28.444,28.444v72.059h-56.889v-72.059L330.852,97.607z M93.815,306.2V27.444H321.37v53.096l-35.081,35.081
				c-1.896,1.896-2.844,3.793-2.844,6.637v85.333c0,5.689,3.793,9.482,9.481,9.482h75.852c5.689,0,9.482-3.793,9.482-9.482v-85.333
				c0-2.844-0.948-4.741-2.844-6.637l-35.081-35.081V27.444h76.8v56.889h-0.948v199.111h0.948V306.2
				c0,46.459-19.911,88.178-57.837,119.467H151.652C113.726,394.378,93.815,352.659,93.815,306.2z M488.244,454.111l-128.948,9.482
				c-9.482,0.948-17.067,5.689-21.807,14.222c-1.896,2.844-4.741,4.741-7.585,4.741H171.563c-2.844,0-5.689-1.896-7.585-4.741
				c-4.741-8.533-12.326-13.274-21.807-14.222l-119.467-9.482c-4.741-0.948-4.741-2.844-4.741-3.793
				c0-2.844,2.844-5.689,5.689-5.689h124.207h214.281h125.156c2.844,0,5.689,2.844,5.689,5.689
				C492.985,451.267,492.985,453.163,488.244,454.111z"/>
			<path style ="fill:#00c4ed" stroke-width="15" d="M131.741,302.407v-85.333c0-5.689-3.793-9.482-9.481-9.482s-9.482,3.793-9.482,9.482v85.333
				c0,38.874,15.17,76.8,40.77,101.452c1.896,1.896,4.741,2.844,6.637,2.844c2.844,0,4.741-0.948,6.637-2.844
				c3.793-3.793,3.793-9.481,0-13.274C145.015,369.726,131.741,336.541,131.741,302.407z"/>
			<path style ="fill:#00c4ed" stroke-width="20" d="M122.259,179.148c5.689,0,9.481-3.793,9.481-9.481v-56.889c0-5.689-3.793-9.482-9.481-9.482s-9.482,3.793-9.482,9.482
				v56.889C112.778,175.356,116.57,179.148,122.259,179.148z"/>
		</g>
	</g>
</g>
<g>
</g>
<g>
</g>
<g>
</g>
<g>
</g>
<g>
</g>
<g>
</g>
<g>
</g>
<g>
</g>
<g>
</g>
<g>
</g>
<g>
</g>
<g>
</g>
<g>
</g>
<g>
</g>
<g>
</g>
</svg>
